<?xml version="1.0" encoding="UTF-8" standalone="no"?>
<!DOCTYPE svg PUBLIC "-//W3C//DTD SVG 1.1//EN"
 "http://www.w3.org/Graphics/SVG/1.1/DTD/svg11.dtd">
<!-- Generated by graphviz version 2.43.0 (0)
 -->
<!-- Title: workflow Pages: 1 -->
<svg width="660pt" height="128pt"
 viewBox="0.00 0.00 659.60 128.00" xmlns="http://www.w3.org/2000/svg" xmlns:xlink="http://www.w3.org/1999/xlink">
<g id="graph0" class="graph" transform="scale(1 1) rotate(0) translate(4 124)">
<title>workflow</title>
<polygon fill="white" stroke="transparent" points="-4,4 -4,-124 655.6,-124 655.6,4 -4,4"/>
<!-- place_fd62812fbd9ec4c7f99aa4f6253fead2388eb238 -->
<g id="node1" class="node">
<title>place_fd62812fbd9ec4c7f99aa4f6253fead2388eb238</title>
<ellipse fill="lightblue" stroke="#333333" cx="36" cy="-36" rx="36" ry="36"/>
<text text-anchor="middle" x="36" y="-33.97" font-family="Arial" font-size="9.00">init</text>
</g>
<!-- place_d848c9713eb1c248d99ae01d257fe9b269623d27 -->
<g id="node2" class="node">
<title>place_d848c9713eb1c248d99ae01d257fe9b269623d27</title>
<ellipse fill="none" stroke="#333333" cx="179.53" cy="-36" rx="36" ry="36"/>
<text text-anchor="middle" x="179.53" y="-33.97" font-family="Arial" font-size="9.00">future</text>
</g>
<!-- place_fd62812fbd9ec4c7f99aa4f6253fead2388eb238&#45;&gt;place_d848c9713eb1c248d99ae01d257fe9b269623d27 -->
<g id="edge1" class="edge">
<title>place_fd62812fbd9ec4c7f99aa4f6253fead2388eb238&#45;&gt;place_d848c9713eb1c248d99ae01d257fe9b269623d27</title>
<path fill="none" stroke="#333333" d="M72.35,-36C92.27,-36 117.25,-36 137.97,-36"/>
<polygon fill="#333333" stroke="#333333" points="138.14,-37.75 143.14,-36 138.14,-34.25 138.14,-37.75"/>
<text text-anchor="middle" x="107.76" y="-39.15" font-family="Arial" font-size="9.00">to_future</text>
</g>
<!-- place_be4f4f44ccf74f05bb32d809871f2e154c526623 -->
<g id="node3" class="node">
<title>place_be4f4f44ccf74f05bb32d809871f2e154c526623</title>
<ellipse fill="none" stroke="#333333" cx="339.06" cy="-36" rx="36" ry="36"/>
<text text-anchor="middle" x="339.06" y="-33.97" font-family="Arial" font-size="9.00">upcoming</text>
</g>
<!-- place_d848c9713eb1c248d99ae01d257fe9b269623d27&#45;&gt;place_be4f4f44ccf74f05bb32d809871f2e154c526623 -->
<g id="edge2" class="edge">
<title>place_d848c9713eb1c248d99ae01d257fe9b269623d27&#45;&gt;place_be4f4f44ccf74f05bb32d809871f2e154c526623</title>
<path fill="none" stroke="#333333" d="M215.88,-36C240.1,-36 272.29,-36 297.55,-36"/>
<polygon fill="#333333" stroke="#333333" points="297.82,-37.75 302.82,-36 297.82,-34.25 297.82,-37.75"/>
<text text-anchor="middle" x="259.29" y="-39.15" font-family="Arial" font-size="9.00">to_upcoming</text>
</g>
<!-- place_2bb6b986c5d6fb26dd9dd1054b545ce022371b0c -->
<g id="node4" class="node">
<title>place_2bb6b986c5d6fb26dd9dd1054b545ce022371b0c</title>
<ellipse fill="none" stroke="#333333" cx="483.08" cy="-84" rx="36" ry="36"/>
<text text-anchor="middle" x="483.08" y="-81.97" font-family="Arial" font-size="9.00">active</text>
</g>
<!-- place_be4f4f44ccf74f05bb32d809871f2e154c526623&#45;&gt;place_2bb6b986c5d6fb26dd9dd1054b545ce022371b0c -->
<g id="edge3" class="edge">
<title>place_be4f4f44ccf74f05bb32d809871f2e154c526623&#45;&gt;place_2bb6b986c5d6fb26dd9dd1054b545ce022371b0c</title>
<path fill="none" stroke="#333333" d="M373.36,-47.25C394.4,-54.36 421.65,-63.58 443.61,-71"/>
<polygon fill="#333333" stroke="#333333" points="443.2,-72.71 448.5,-72.65 444.32,-69.39 443.2,-72.71"/>
<text text-anchor="middle" x="411.07" y="-68.15" font-family="Arial" font-size="9.00">to_active</text>
</g>
<!-- place_c00dbbc9dadfbe1e232e93a729dd4752fade0abf -->
<g id="node5" class="node">
<title>place_c00dbbc9dadfbe1e232e93a729dd4752fade0abf</title>
<ellipse fill="none" stroke="#333333" cx="615.6" cy="-36" rx="36" ry="36"/>
<text text-anchor="middle" x="615.6" y="-33.97" font-family="Arial" font-size="9.00">old</text>
</g>
<!-- place_be4f4f44ccf74f05bb32d809871f2e154c526623&#45;&gt;place_c00dbbc9dadfbe1e232e93a729dd4752fade0abf -->
<g id="edge4" class="edge">
<title>place_be4f4f44ccf74f05bb32d809871f2e154c526623&#45;&gt;place_c00dbbc9dadfbe1e232e93a729dd4752fade0abf</title>
<path fill="none" stroke="#333333" d="M375.22,-32.98C396.08,-31.33 423.07,-29.47 447.08,-28.65 479.06,-27.55 487.11,-27.42 519.08,-28.65 537.31,-29.35 557.45,-30.8 574.51,-32.23"/>
<polygon fill="#333333" stroke="#333333" points="574.58,-33.99 579.71,-32.67 574.87,-30.5 574.58,-33.99"/>
<text text-anchor="middle" x="483.08" y="-31.15" font-family="Arial" font-size="9.00">to_old</text>
</g>
<!-- place_2bb6b986c5d6fb26dd9dd1054b545ce022371b0c&#45;&gt;place_c00dbbc9dadfbe1e232e93a729dd4752fade0abf -->
<g id="edge5" class="edge">
<title>place_2bb6b986c5d6fb26dd9dd1054b545ce022371b0c&#45;&gt;place_c00dbbc9dadfbe1e232e93a729dd4752fade0abf</title>
<path fill="none" stroke="#333333" d="M517.02,-71.89C535.26,-65.18 558.01,-56.81 576.95,-49.85"/>
<polygon fill="#333333" stroke="#333333" points="577.59,-51.48 581.68,-48.11 576.38,-48.19 577.59,-51.48"/>
<text text-anchor="middle" x="549.34" y="-67.15" font-family="Arial" font-size="9.00">to_old</text>
</g>
</g>
</svg>
