<?xml version="1.0" encoding="UTF-8" standalone="no"?>
<!DOCTYPE svg PUBLIC "-//W3C//DTD SVG 1.1//EN"
 "http://www.w3.org/Graphics/SVG/1.1/DTD/svg11.dtd">
<!-- Generated by graphviz version 2.43.0 (0)
 -->
<!-- Title: workflow Pages: 1 -->
<svg width="355pt" height="170pt"
 viewBox="0.00 0.00 354.55 170.00" xmlns="http://www.w3.org/2000/svg" xmlns:xlink="http://www.w3.org/1999/xlink">
<g id="graph0" class="graph" transform="scale(1 1) rotate(0) translate(4 166)">
<title>workflow</title>
<polygon fill="white" stroke="transparent" points="-4,4 -4,-166 350.55,-166 350.55,4 -4,4"/>
<!-- place_0e7766b460fd2a39a2fd81d4a3a636b033b52be4 -->
<g id="node1" class="node">
<title>place_0e7766b460fd2a39a2fd81d4a3a636b033b52be4</title>
<ellipse fill="lightblue" stroke="#333333" cx="36" cy="-81" rx="36" ry="36"/>
<text text-anchor="middle" x="36" y="-78.97" font-family="Arial" font-size="9.00">draft</text>
</g>
<!-- place_1f087a5954f6249bb7245576c304a0520d4178c5 -->
<g id="node2" class="node">
<title>place_1f087a5954f6249bb7245576c304a0520d4178c5</title>
<ellipse fill="none" stroke="#333333" cx="172.52" cy="-126" rx="36" ry="36"/>
<text text-anchor="middle" x="172.52" y="-123.97" font-family="Arial" font-size="9.00">rejected</text>
</g>
<!-- place_0e7766b460fd2a39a2fd81d4a3a636b033b52be4&#45;&gt;place_1f087a5954f6249bb7245576c304a0520d4178c5 -->
<g id="edge2" class="edge">
<title>place_0e7766b460fd2a39a2fd81d4a3a636b033b52be4&#45;&gt;place_1f087a5954f6249bb7245576c304a0520d4178c5</title>
<path fill="none" stroke="#333333" d="M70.25,-92.12C89.33,-98.51 113.36,-106.55 133.23,-113.19"/>
<polygon fill="#333333" stroke="#333333" points="132.89,-114.92 138.18,-114.85 134,-111.6 132.89,-114.92"/>
<text text-anchor="middle" x="104.26" y="-110.15" font-family="Arial" font-size="9.00">reject</text>
</g>
<!-- place_c2807535f28e44fe6c7375dcf90518115529a8fa -->
<g id="node3" class="node">
<title>place_c2807535f28e44fe6c7375dcf90518115529a8fa</title>
<ellipse fill="none" stroke="#333333" cx="172.52" cy="-36" rx="36" ry="36"/>
<text text-anchor="middle" x="172.52" y="-33.97" font-family="Arial" font-size="9.00">published</text>
</g>
<!-- place_0e7766b460fd2a39a2fd81d4a3a636b033b52be4&#45;&gt;place_c2807535f28e44fe6c7375dcf90518115529a8fa -->
<g id="edge1" class="edge">
<title>place_0e7766b460fd2a39a2fd81d4a3a636b033b52be4&#45;&gt;place_c2807535f28e44fe6c7375dcf90518115529a8fa</title>
<path fill="none" stroke="#333333" d="M70.25,-69.88C89.33,-63.49 113.36,-55.45 133.23,-48.81"/>
<polygon fill="#333333" stroke="#333333" points="134,-50.4 138.18,-47.15 132.89,-47.08 134,-50.4"/>
<text text-anchor="middle" x="104.26" y="-65.15" font-family="Arial" font-size="9.00">publish</text>
</g>
<!-- place_b85a5176d55923c3a5c736b9766e15c5b7392237 -->
<g id="node4" class="node">
<title>place_b85a5176d55923c3a5c736b9766e15c5b7392237</title>
<ellipse fill="none" stroke="#333333" cx="310.55" cy="-36" rx="36" ry="36"/>
<text text-anchor="middle" x="310.55" y="-33.97" font-family="Arial" font-size="9.00">outdated</text>
</g>
<!-- place_c2807535f28e44fe6c7375dcf90518115529a8fa&#45;&gt;place_b85a5176d55923c3a5c736b9766e15c5b7392237 -->
<g id="edge3" class="edge">
<title>place_c2807535f28e44fe6c7375dcf90518115529a8fa&#45;&gt;place_b85a5176d55923c3a5c736b9766e15c5b7392237</title>
<path fill="none" stroke="#333333" d="M208.55,-36C226.97,-36 249.65,-36 268.85,-36"/>
<polygon fill="#333333" stroke="#333333" points="269.16,-37.75 274.16,-36 269.16,-34.25 269.16,-37.75"/>
<text text-anchor="middle" x="241.53" y="-39.15" font-family="Arial" font-size="9.00">outdate</text>
</g>
</g>
</svg>
