<?xml version="1.0" encoding="UTF-8" standalone="no"?>
<!DOCTYPE svg PUBLIC "-//W3C//DTD SVG 1.1//EN"
 "http://www.w3.org/Graphics/SVG/1.1/DTD/svg11.dtd">
<!-- Generated by graphviz version 2.43.0 (0)
 -->
<!-- Title: workflow Pages: 1 -->
<svg width="485pt" height="170pt"
 viewBox="0.00 0.00 485.04 170.00" xmlns="http://www.w3.org/2000/svg" xmlns:xlink="http://www.w3.org/1999/xlink">
<g id="graph0" class="graph" transform="scale(1 1) rotate(0) translate(4 166)">
<title>workflow</title>
<polygon fill="white" stroke="transparent" points="-4,4 -4,-166 481.04,-166 481.04,4 -4,4"/>
<!-- place_fd62812fbd9ec4c7f99aa4f6253fead2388eb238 -->
<g id="node1" class="node">
<title>place_fd62812fbd9ec4c7f99aa4f6253fead2388eb238</title>
<ellipse fill="lightblue" stroke="#333333" cx="36" cy="-52" rx="36" ry="36"/>
<text text-anchor="middle" x="36" y="-49.97" font-family="Arial" font-size="9.00">init</text>
</g>
<!-- place_c2a6b03f190dfb2b4aa91f8af8d477a9bc3401dc -->
<g id="node2" class="node">
<title>place_c2a6b03f190dfb2b4aa91f8af8d477a9bc3401dc</title>
<ellipse fill="none" stroke="#333333" cx="169.01" cy="-52" rx="36" ry="36"/>
<text text-anchor="middle" x="169.01" y="-49.97" font-family="Arial" font-size="9.00">new</text>
</g>
<!-- place_fd62812fbd9ec4c7f99aa4f6253fead2388eb238&#45;&gt;place_c2a6b03f190dfb2b4aa91f8af8d477a9bc3401dc -->
<g id="edge1" class="edge">
<title>place_fd62812fbd9ec4c7f99aa4f6253fead2388eb238&#45;&gt;place_c2a6b03f190dfb2b4aa91f8af8d477a9bc3401dc</title>
<path fill="none" stroke="#333333" d="M72.11,-52C89.14,-52 109.7,-52 127.41,-52"/>
<polygon fill="#333333" stroke="#333333" points="127.81,-53.75 132.81,-52 127.81,-50.25 127.81,-53.75"/>
<text text-anchor="middle" x="102.51" y="-55.15" font-family="Arial" font-size="9.00">create</text>
</g>
<!-- place_9e1f1120d2eedc498808e1d855cfdbbd5564f22b -->
<g id="node3" class="node">
<title>place_9e1f1120d2eedc498808e1d855cfdbbd5564f22b</title>
<ellipse fill="none" stroke="#333333" cx="307.02" cy="-126" rx="36" ry="36"/>
<text text-anchor="middle" x="307.02" y="-123.97" font-family="Arial" font-size="9.00">paid</text>
</g>
<!-- place_c2a6b03f190dfb2b4aa91f8af8d477a9bc3401dc&#45;&gt;place_9e1f1120d2eedc498808e1d855cfdbbd5564f22b -->
<g id="edge2" class="edge">
<title>place_c2a6b03f190dfb2b4aa91f8af8d477a9bc3401dc&#45;&gt;place_9e1f1120d2eedc498808e1d855cfdbbd5564f22b</title>
<path fill="none" stroke="#333333" d="M200.88,-68.79C221.51,-80.02 248.73,-94.83 270.3,-106.56"/>
<polygon fill="#333333" stroke="#333333" points="269.58,-108.17 274.81,-109.02 271.26,-105.09 269.58,-108.17"/>
<text text-anchor="middle" x="238.02" y="-99.15" font-family="Arial" font-size="9.00">pay</text>
</g>
<!-- place_b639f5cc719831458c83999303237e8499c0cabe -->
<g id="node5" class="node">
<title>place_b639f5cc719831458c83999303237e8499c0cabe</title>
<ellipse fill="none" stroke="#333333" cx="307.02" cy="-36" rx="36" ry="36"/>
<text text-anchor="middle" x="307.02" y="-33.97" font-family="Arial" font-size="9.00">deleted</text>
</g>
<!-- place_c2a6b03f190dfb2b4aa91f8af8d477a9bc3401dc&#45;&gt;place_b639f5cc719831458c83999303237e8499c0cabe -->
<g id="edge3" class="edge">
<title>place_c2a6b03f190dfb2b4aa91f8af8d477a9bc3401dc&#45;&gt;place_b639f5cc719831458c83999303237e8499c0cabe</title>
<path fill="none" stroke="#333333" d="M205.04,-47.88C223.6,-45.7 246.49,-43 265.78,-40.73"/>
<polygon fill="#333333" stroke="#333333" points="266.36,-42.43 271.12,-40.11 265.95,-38.95 266.36,-42.43"/>
<text text-anchor="middle" x="238.02" y="-49.15" font-family="Arial" font-size="9.00">remove</text>
</g>
<!-- place_140e7351379dcf91c8a2461ed5cf53e1b9d1414b -->
<g id="node4" class="node">
<title>place_140e7351379dcf91c8a2461ed5cf53e1b9d1414b</title>
<ellipse fill="none" stroke="#333333" cx="441.04" cy="-126" rx="36" ry="36"/>
<text text-anchor="middle" x="441.04" y="-123.97" font-family="Arial" font-size="9.00">canceled</text>
</g>
<!-- place_9e1f1120d2eedc498808e1d855cfdbbd5564f22b&#45;&gt;place_140e7351379dcf91c8a2461ed5cf53e1b9d1414b -->
<g id="edge4" class="edge">
<title>place_9e1f1120d2eedc498808e1d855cfdbbd5564f22b&#45;&gt;place_140e7351379dcf91c8a2461ed5cf53e1b9d1414b</title>
<path fill="none" stroke="#333333" d="M343.06,-126C360.51,-126 381.7,-126 399.82,-126"/>
<polygon fill="#333333" stroke="#333333" points="399.84,-127.75 404.84,-126 399.84,-124.25 399.84,-127.75"/>
<text text-anchor="middle" x="374.03" y="-129.15" font-family="Arial" font-size="9.00">cancel</text>
</g>
</g>
</svg>
