<?xml version="1.0" encoding="UTF-8" standalone="no"?>
<!DOCTYPE svg PUBLIC "-//W3C//DTD SVG 1.1//EN"
 "http://www.w3.org/Graphics/SVG/1.1/DTD/svg11.dtd">
<!-- Generated by graphviz version 2.40.1 (20161225.0304)
 -->
<!-- Title: workflow Pages: 1 -->
<svg width="880pt" height="274pt"
 viewBox="0.00 0.00 879.74 274.35" xmlns="http://www.w3.org/2000/svg" xmlns:xlink="http://www.w3.org/1999/xlink">
<g id="graph0" class="graph" transform="scale(1 1) rotate(0) translate(4 270.3491)">
<title>workflow</title>
<polygon fill="#ffffff" stroke="transparent" points="-4,4 -4,-270.3491 875.7434,-270.3491 875.7434,4 -4,4"/>
<!-- place_c2a6b03f190dfb2b4aa91f8af8d477a9bc3401dc -->
<g id="node1" class="node">
<title>place_c2a6b03f190dfb2b4aa91f8af8d477a9bc3401dc</title>
<ellipse fill="#add8e6" stroke="#333333" cx="36" cy="-108" rx="36" ry="36"/>
<text text-anchor="middle" x="36" y="-105.9746" font-family="Arial" font-size="9.00" fill="#000000">new</text>
</g>
<!-- place_4620e777ccef3c22a25e3febaff467d592340c17 -->
<g id="node2" class="node">
<title>place_4620e777ccef3c22a25e3febaff467d592340c17</title>
<ellipse fill="none" stroke="#333333" cx="223.3277" cy="-108" rx="45.5694" ry="45.5694"/>
<text text-anchor="middle" x="223.3277" y="-105.9746" font-family="Arial" font-size="9.00" fill="#000000">awaiting_payment</text>
</g>
<!-- place_c2a6b03f190dfb2b4aa91f8af8d477a9bc3401dc&#45;&gt;place_4620e777ccef3c22a25e3febaff467d592340c17 -->
<g id="edge1" class="edge">
<title>place_c2a6b03f190dfb2b4aa91f8af8d477a9bc3401dc&#45;&gt;place_4620e777ccef3c22a25e3febaff467d592340c17</title>
<path fill="none" stroke="#333333" d="M72.1187,-108C100.5781,-108 140.6099,-108 172.335,-108"/>
<polygon fill="#333333" stroke="#333333" points="172.3523,-109.7501 177.3523,-108 172.3522,-106.2501 172.3523,-109.7501"/>
<text text-anchor="middle" x="124.7717" y="-111.1491" font-family="Arial" font-size="9.00" fill="#000000">request_payment</text>
</g>
<!-- place_6d82eda4af805e3297b0b24d792508e28e60457c -->
<g id="node3" class="node">
<title>place_6d82eda4af805e3297b0b24d792508e28e60457c</title>
<ellipse fill="none" stroke="#333333" cx="391.6402" cy="-176" rx="36" ry="36"/>
<text text-anchor="middle" x="391.6402" y="-173.9746" font-family="Arial" font-size="9.00" fill="#000000">partially_paid</text>
</g>
<!-- place_4620e777ccef3c22a25e3febaff467d592340c17&#45;&gt;place_6d82eda4af805e3297b0b24d792508e28e60457c -->
<g id="edge2" class="edge">
<title>place_4620e777ccef3c22a25e3febaff467d592340c17&#45;&gt;place_6d82eda4af805e3297b0b24d792508e28e60457c</title>
<path fill="none" stroke="#333333" d="M265.8,-125.1593C292.7537,-136.0488 327.3394,-150.0218 353.4295,-160.5625"/>
<polygon fill="#333333" stroke="#333333" points="352.9069,-162.2387 358.1984,-162.4892 354.218,-158.9936 352.9069,-162.2387"/>
<text text-anchor="middle" x="312.376" y="-157.1491" font-family="Arial" font-size="9.00" fill="#000000">partially_pay</text>
</g>
<!-- place_9e1f1120d2eedc498808e1d855cfdbbd5564f22b -->
<g id="node4" class="node">
<title>place_9e1f1120d2eedc498808e1d855cfdbbd5564f22b</title>
<ellipse fill="none" stroke="#333333" cx="514.1509" cy="-106" rx="36" ry="36"/>
<text text-anchor="middle" x="514.1509" y="-103.9746" font-family="Arial" font-size="9.00" fill="#000000">paid</text>
</g>
<!-- place_4620e777ccef3c22a25e3febaff467d592340c17&#45;&gt;place_9e1f1120d2eedc498808e1d855cfdbbd5564f22b -->
<g id="edge4" class="edge">
<title>place_4620e777ccef3c22a25e3febaff467d592340c17&#45;&gt;place_9e1f1120d2eedc498808e1d855cfdbbd5564f22b</title>
<path fill="none" stroke="#333333" d="M269.4095,-107.6831C325.4221,-107.2979 419.1005,-106.6537 472.8573,-106.284"/>
<polygon fill="#333333" stroke="#333333" points="472.9445,-108.0335 477.9323,-106.2491 472.9204,-104.5336 472.9445,-108.0335"/>
<text text-anchor="middle" x="391.6402" y="-110.1491" font-family="Arial" font-size="9.00" fill="#000000">pay</text>
</g>
<!-- place_8761d26fb8d6c7853faf7cf13fd3e5471364dc36 -->
<g id="node5" class="node">
<title>place_8761d26fb8d6c7853faf7cf13fd3e5471364dc36</title>
<ellipse fill="none" stroke="#333333" cx="391.6402" cy="-36" rx="36" ry="36"/>
<text text-anchor="middle" x="391.6402" y="-33.9746" font-family="Arial" font-size="9.00" fill="#000000">cancelled</text>
</g>
<!-- place_4620e777ccef3c22a25e3febaff467d592340c17&#45;&gt;place_8761d26fb8d6c7853faf7cf13fd3e5471364dc36 -->
<g id="edge3" class="edge">
<title>place_4620e777ccef3c22a25e3febaff467d592340c17&#45;&gt;place_8761d26fb8d6c7853faf7cf13fd3e5471364dc36</title>
<path fill="none" stroke="#333333" d="M265.8,-89.8314C292.8453,-78.262 327.5748,-63.4056 353.6954,-52.2319"/>
<polygon fill="#333333" stroke="#333333" points="354.5599,-53.7655 358.4687,-50.19 353.1833,-50.5476 354.5599,-53.7655"/>
<text text-anchor="middle" x="312.376" y="-83.1491" font-family="Arial" font-size="9.00" fill="#000000">cancel</text>
</g>
<!-- place_6d82eda4af805e3297b0b24d792508e28e60457c&#45;&gt;place_6d82eda4af805e3297b0b24d792508e28e60457c -->
<g id="edge5" class="edge">
<title>place_6d82eda4af805e3297b0b24d792508e28e60457c&#45;&gt;place_6d82eda4af805e3297b0b24d792508e28e60457c</title>
<path fill="none" stroke="#333333" d="M380.393,-210.2757C380.5083,-221.2791 384.2574,-230 391.6402,-230 397.7541,-230 401.376,-224.0193 402.5059,-215.7143"/>
<polygon fill="#333333" stroke="#333333" points="404.2832,-215.3859 402.8875,-210.2757 400.7918,-215.1409 404.2832,-215.3859"/>
<text text-anchor="middle" x="391.6402" y="-233.1491" font-family="Arial" font-size="9.00" fill="#000000">partially_pay</text>
</g>
<!-- place_6d82eda4af805e3297b0b24d792508e28e60457c&#45;&gt;place_9e1f1120d2eedc498808e1d855cfdbbd5564f22b -->
<g id="edge6" class="edge">
<title>place_6d82eda4af805e3297b0b24d792508e28e60457c&#45;&gt;place_9e1f1120d2eedc498808e1d855cfdbbd5564f22b</title>
<path fill="none" stroke="#333333" d="M423.1898,-157.9733C440.0521,-148.3385 460.8771,-136.4395 478.3443,-126.4592"/>
<polygon fill="#333333" stroke="#333333" points="479.2352,-127.9657 482.7083,-123.9657 477.4988,-124.9268 479.2352,-127.9657"/>
<text text-anchor="middle" x="452.8956" y="-146.1491" font-family="Arial" font-size="9.00" fill="#000000">pay</text>
</g>
<!-- place_8fd6bd1338657f4b0f413451cbb18de484dfbc89 -->
<g id="node6" class="node">
<title>place_8fd6bd1338657f4b0f413451cbb18de484dfbc89</title>
<ellipse fill="none" stroke="#333333" cx="692.956" cy="-162" rx="45.038" ry="45.038"/>
<text text-anchor="middle" x="692.956" y="-159.9746" font-family="Arial" font-size="9.00" fill="#000000">partially_refunded</text>
</g>
<!-- place_6d82eda4af805e3297b0b24d792508e28e60457c&#45;&gt;place_8fd6bd1338657f4b0f413451cbb18de484dfbc89 -->
<g id="edge7" class="edge">
<title>place_6d82eda4af805e3297b0b24d792508e28e60457c&#45;&gt;place_8fd6bd1338657f4b0f413451cbb18de484dfbc89</title>
<path fill="none" stroke="#333333" d="M427.6866,-174.3252C481.1686,-171.8403 581.7418,-167.1673 642.5113,-164.3438"/>
<polygon fill="#333333" stroke="#333333" points="642.6268,-166.0904 647.5401,-164.1102 642.4643,-162.5942 642.6268,-166.0904"/>
<text text-anchor="middle" x="514.1509" y="-174.1491" font-family="Arial" font-size="9.00" fill="#000000">partially_refund</text>
</g>
<!-- place_a994ad4d435724c621cf03d9bbeb61bc270c6a82 -->
<g id="node7" class="node">
<title>place_a994ad4d435724c621cf03d9bbeb61bc270c6a82</title>
<ellipse fill="none" stroke="#333333" cx="835.7434" cy="-162" rx="36" ry="36"/>
<text text-anchor="middle" x="835.7434" y="-159.9746" font-family="Arial" font-size="9.00" fill="#000000">refunded</text>
</g>
<!-- place_6d82eda4af805e3297b0b24d792508e28e60457c&#45;&gt;place_a994ad4d435724c621cf03d9bbeb61bc270c6a82 -->
<g id="edge8" class="edge">
<title>place_6d82eda4af805e3297b0b24d792508e28e60457c&#45;&gt;place_a994ad4d435724c621cf03d9bbeb61bc270c6a82</title>
<path fill="none" stroke="#333333" d="M423.5943,-193.447C485.7821,-224.993 626.7504,-284.6384 738.2244,-244 765.8908,-233.914 791.1542,-212.1434 809.0323,-193.5681"/>
<polygon fill="#333333" stroke="#333333" points="810.3391,-194.7332 812.5079,-189.9 807.7985,-192.3258 810.3391,-194.7332"/>
<text text-anchor="middle" x="598.9193" y="-259.1491" font-family="Arial" font-size="9.00" fill="#000000">refund</text>
</g>
<!-- place_9e1f1120d2eedc498808e1d855cfdbbd5564f22b&#45;&gt;place_8fd6bd1338657f4b0f413451cbb18de484dfbc89 -->
<g id="edge9" class="edge">
<title>place_9e1f1120d2eedc498808e1d855cfdbbd5564f22b&#45;&gt;place_8fd6bd1338657f4b0f413451cbb18de484dfbc89</title>
<path fill="none" stroke="#333333" d="M548.6264,-116.7974C575.9836,-125.3654 614.5441,-137.4422 644.9263,-146.9576"/>
<polygon fill="#333333" stroke="#333333" points="644.4348,-148.6374 649.7293,-148.4618 645.4809,-145.2974 644.4348,-148.6374"/>
<text text-anchor="middle" x="598.9193" y="-143.1491" font-family="Arial" font-size="9.00" fill="#000000">partially_refund</text>
</g>
<!-- place_9e1f1120d2eedc498808e1d855cfdbbd5564f22b&#45;&gt;place_a994ad4d435724c621cf03d9bbeb61bc270c6a82 -->
<g id="edge10" class="edge">
<title>place_9e1f1120d2eedc498808e1d855cfdbbd5564f22b&#45;&gt;place_a994ad4d435724c621cf03d9bbeb61bc270c6a82</title>
<path fill="none" stroke="#333333" d="M549.5886,-97.7524C594.5287,-88.8465 673.908,-78.3432 738.2244,-97.6509 762.6075,-104.9707 786.5219,-120.5801 804.5665,-134.5916"/>
<polygon fill="#333333" stroke="#333333" points="803.5478,-136.0169 808.5575,-137.739 805.7151,-133.2687 803.5478,-136.0169"/>
<text text-anchor="middle" x="692.956" y="-100.1491" font-family="Arial" font-size="9.00" fill="#000000">refund</text>
</g>
<!-- place_8fd6bd1338657f4b0f413451cbb18de484dfbc89&#45;&gt;place_8fd6bd1338657f4b0f413451cbb18de484dfbc89 -->
<g id="edge11" class="edge">
<title>place_8fd6bd1338657f4b0f413451cbb18de484dfbc89&#45;&gt;place_8fd6bd1338657f4b0f413451cbb18de484dfbc89</title>
<path fill="none" stroke="#333333" d="M678.8312,-205.1739C679.6383,-216.6081 684.3466,-225.2684 692.956,-225.2684 700.2201,-225.2684 704.707,-219.103 706.4167,-210.308"/>
<polygon fill="#333333" stroke="#333333" points="708.1748,-210.3571 707.0807,-205.1739 704.7037,-209.908 708.1748,-210.3571"/>
<text text-anchor="middle" x="692.956" y="-228.4175" font-family="Arial" font-size="9.00" fill="#000000">partially_refund</text>
</g>
<!-- place_8fd6bd1338657f4b0f413451cbb18de484dfbc89&#45;&gt;place_a994ad4d435724c621cf03d9bbeb61bc270c6a82 -->
<g id="edge12" class="edge">
<title>place_8fd6bd1338657f4b0f413451cbb18de484dfbc89&#45;&gt;place_a994ad4d435724c621cf03d9bbeb61bc270c6a82</title>
<path fill="none" stroke="#333333" d="M738.5274,-162C756.427,-162 776.8293,-162 794.3061,-162"/>
<polygon fill="#333333" stroke="#333333" points="794.63,-163.7501 799.63,-162 794.6299,-160.2501 794.63,-163.7501"/>
<text text-anchor="middle" x="768.9839" y="-165.1491" font-family="Arial" font-size="9.00" fill="#000000">refund</text>
</g>
</g>
</svg>
