<?xml version="1.0" encoding="UTF-8" standalone="no"?>
<!DOCTYPE svg PUBLIC "-//W3C//DTD SVG 1.1//EN"
 "http://www.w3.org/Graphics/SVG/1.1/DTD/svg11.dtd">
<!-- Generated by graphviz version 2.40.1 (20161225.0304)
 -->
<!-- Title: workflow Pages: 1 -->
<svg width="631pt" height="261pt"
 viewBox="0.00 0.00 630.56 261.00" xmlns="http://www.w3.org/2000/svg" xmlns:xlink="http://www.w3.org/1999/xlink">
<g id="graph0" class="graph" transform="scale(1 1) rotate(0) translate(4 257)">
<title>workflow</title>
<polygon fill="#ffffff" stroke="transparent" points="-4,4 -4,-257 626.5645,-257 626.5645,4 -4,4"/>
<!-- place_fd62812fbd9ec4c7f99aa4f6253fead2388eb238 -->
<g id="node1" class="node">
<title>place_fd62812fbd9ec4c7f99aa4f6253fead2388eb238</title>
<ellipse fill="#add8e6" stroke="#333333" cx="36" cy="-113" rx="36" ry="36"/>
<text text-anchor="middle" x="36" y="-110.9746" font-family="Arial" font-size="9.00" fill="#000000">init</text>
</g>
<!-- place_c2a6b03f190dfb2b4aa91f8af8d477a9bc3401dc -->
<g id="node2" class="node">
<title>place_c2a6b03f190dfb2b4aa91f8af8d477a9bc3401dc</title>
<ellipse fill="none" stroke="#333333" cx="169.0137" cy="-113" rx="36" ry="36"/>
<text text-anchor="middle" x="169.0137" y="-110.9746" font-family="Arial" font-size="9.00" fill="#000000">new</text>
</g>
<!-- place_fd62812fbd9ec4c7f99aa4f6253fead2388eb238&#45;&gt;place_c2a6b03f190dfb2b4aa91f8af8d477a9bc3401dc -->
<g id="edge1" class="edge">
<title>place_fd62812fbd9ec4c7f99aa4f6253fead2388eb238&#45;&gt;place_c2a6b03f190dfb2b4aa91f8af8d477a9bc3401dc</title>
<path fill="none" stroke="#333333" d="M72.3466,-113C89.3554,-113 109.7033,-113 127.3336,-113"/>
<polygon fill="#333333" stroke="#333333" points="127.7111,-114.7501 132.711,-113 127.711,-111.2501 127.7111,-114.7501"/>
<text text-anchor="middle" x="102.5068" y="-116.1491" font-family="Arial" font-size="9.00" fill="#000000">create</text>
</g>
<!-- place_6dd8429cc900b9460f1e9d4be6155a6ee1b6de42 -->
<g id="node3" class="node">
<title>place_6dd8429cc900b9460f1e9d4be6155a6ee1b6de42</title>
<ellipse fill="none" stroke="#333333" cx="308.5269" cy="-145" rx="36" ry="36"/>
<text text-anchor="middle" x="308.5269" y="-142.9746" font-family="Arial" font-size="9.00" fill="#000000">processing</text>
</g>
<!-- place_c2a6b03f190dfb2b4aa91f8af8d477a9bc3401dc&#45;&gt;place_6dd8429cc900b9460f1e9d4be6155a6ee1b6de42 -->
<g id="edge2" class="edge">
<title>place_c2a6b03f190dfb2b4aa91f8af8d477a9bc3401dc&#45;&gt;place_6dd8429cc900b9460f1e9d4be6155a6ee1b6de42</title>
<path fill="none" stroke="#333333" d="M204.2187,-121.075C223.7156,-125.5469 248.0302,-131.1239 268.2783,-135.7682"/>
<polygon fill="#333333" stroke="#333333" points="268.0683,-137.5154 273.3331,-136.9276 268.8509,-134.104 268.0683,-137.5154"/>
<text text-anchor="middle" x="238.7703" y="-134.1491" font-family="Arial" font-size="9.00" fill="#000000">process</text>
</g>
<!-- place_5f5f8758f5f22d523e531f58123b6db9161683a4 -->
<g id="node4" class="node">
<title>place_5f5f8758f5f22d523e531f58123b6db9161683a4</title>
<ellipse fill="none" stroke="#333333" cx="453.0454" cy="-217" rx="36" ry="36"/>
<text text-anchor="middle" x="453.0454" y="-214.9746" font-family="Arial" font-size="9.00" fill="#000000">failed</text>
</g>
<!-- place_c2a6b03f190dfb2b4aa91f8af8d477a9bc3401dc&#45;&gt;place_5f5f8758f5f22d523e531f58123b6db9161683a4 -->
<g id="edge4" class="edge">
<title>place_c2a6b03f190dfb2b4aa91f8af8d477a9bc3401dc&#45;&gt;place_5f5f8758f5f22d523e531f58123b6db9161683a4</title>
<path fill="none" stroke="#333333" d="M195.2587,-138.3152C214.9257,-155.7487 243.3658,-177.8761 272.5269,-190 317.5674,-208.726 373.7093,-214.6943 411.318,-216.4767"/>
<polygon fill="#333333" stroke="#333333" points="411.6579,-218.2429 416.7288,-216.7103 411.809,-214.7462 411.6579,-218.2429"/>
<text text-anchor="middle" x="308.5269" y="-212.1491" font-family="Arial" font-size="9.00" fill="#000000">fail</text>
</g>
<!-- place_231e564db4cdb44a6545583a8d460edc7f9f97ca -->
<g id="node5" class="node">
<title>place_231e564db4cdb44a6545583a8d460edc7f9f97ca</title>
<ellipse fill="none" stroke="#333333" cx="453.0454" cy="-127" rx="36" ry="36"/>
<text text-anchor="middle" x="453.0454" y="-124.9746" font-family="Arial" font-size="9.00" fill="#000000">completed</text>
</g>
<!-- place_c2a6b03f190dfb2b4aa91f8af8d477a9bc3401dc&#45;&gt;place_231e564db4cdb44a6545583a8d460edc7f9f97ca -->
<g id="edge3" class="edge">
<title>place_c2a6b03f190dfb2b4aa91f8af8d477a9bc3401dc&#45;&gt;place_231e564db4cdb44a6545583a8d460edc7f9f97ca</title>
<path fill="none" stroke="#333333" d="M203.5187,-102.1837C249.3919,-89.6094 332.4229,-73.1894 399.0454,-95 405.6477,-97.1614 412.3105,-100.2308 418.5941,-103.6218"/>
<polygon fill="#333333" stroke="#333333" points="418.1006,-105.3512 423.3181,-106.268 419.8111,-102.2976 418.1006,-105.3512"/>
<text text-anchor="middle" x="308.5269" y="-91.1491" font-family="Arial" font-size="9.00" fill="#000000">complete</text>
</g>
<!-- place_140e7351379dcf91c8a2461ed5cf53e1b9d1414b -->
<g id="node6" class="node">
<title>place_140e7351379dcf91c8a2461ed5cf53e1b9d1414b</title>
<ellipse fill="none" stroke="#333333" cx="453.0454" cy="-36" rx="36" ry="36"/>
<text text-anchor="middle" x="453.0454" y="-33.9746" font-family="Arial" font-size="9.00" fill="#000000">canceled</text>
</g>
<!-- place_c2a6b03f190dfb2b4aa91f8af8d477a9bc3401dc&#45;&gt;place_140e7351379dcf91c8a2461ed5cf53e1b9d1414b -->
<g id="edge5" class="edge">
<title>place_c2a6b03f190dfb2b4aa91f8af8d477a9bc3401dc&#45;&gt;place_140e7351379dcf91c8a2461ed5cf53e1b9d1414b</title>
<path fill="none" stroke="#333333" d="M201.2603,-96.6335C208.3501,-93.2722 215.8741,-89.8833 223.0137,-87 286.5078,-61.3577 365.3238,-47.4434 412.2737,-40.8836"/>
<polygon fill="#333333" stroke="#333333" points="412.5618,-42.6106 417.2767,-40.1956 412.0849,-39.1432 412.5618,-42.6106"/>
<text text-anchor="middle" x="308.5269" y="-73.1491" font-family="Arial" font-size="9.00" fill="#000000">cancel</text>
</g>
<!-- place_6dd8429cc900b9460f1e9d4be6155a6ee1b6de42&#45;&gt;place_5f5f8758f5f22d523e531f58123b6db9161683a4 -->
<g id="edge7" class="edge">
<title>place_6dd8429cc900b9460f1e9d4be6155a6ee1b6de42&#45;&gt;place_5f5f8758f5f22d523e531f58123b6db9161683a4</title>
<path fill="none" stroke="#333333" d="M340.9596,-161.1582C363.2731,-172.2749 392.955,-187.0626 416.1685,-198.6277"/>
<polygon fill="#333333" stroke="#333333" points="415.4651,-200.2324 420.7209,-200.8957 417.0259,-197.0997 415.4651,-200.2324"/>
<text text-anchor="middle" x="380.7861" y="-192.1491" font-family="Arial" font-size="9.00" fill="#000000">fail</text>
</g>
<!-- place_6dd8429cc900b9460f1e9d4be6155a6ee1b6de42&#45;&gt;place_231e564db4cdb44a6545583a8d460edc7f9f97ca -->
<g id="edge6" class="edge">
<title>place_6dd8429cc900b9460f1e9d4be6155a6ee1b6de42&#45;&gt;place_231e564db4cdb44a6545583a8d460edc7f9f97ca</title>
<path fill="none" stroke="#333333" d="M344.6222,-140.5043C365.0556,-137.9593 390.6872,-134.7668 411.8982,-132.1249"/>
<polygon fill="#333333" stroke="#333333" points="412.164,-133.8555 416.9094,-131.5008 411.7314,-130.3823 412.164,-133.8555"/>
<text text-anchor="middle" x="380.7861" y="-141.1491" font-family="Arial" font-size="9.00" fill="#000000">complete</text>
</g>
<!-- place_6dd8429cc900b9460f1e9d4be6155a6ee1b6de42&#45;&gt;place_140e7351379dcf91c8a2461ed5cf53e1b9d1414b -->
<g id="edge8" class="edge">
<title>place_6dd8429cc900b9460f1e9d4be6155a6ee1b6de42&#45;&gt;place_140e7351379dcf91c8a2461ed5cf53e1b9d1414b</title>
<path fill="none" stroke="#333333" d="M337.425,-123.2042C361.2522,-105.233 395.0613,-79.7333 419.9678,-60.9481"/>
<polygon fill="#333333" stroke="#333333" points="421.2592,-62.166 424.1973,-57.758 419.1517,-59.3717 421.2592,-62.166"/>
<text text-anchor="middle" x="380.7861" y="-107.1491" font-family="Arial" font-size="9.00" fill="#000000">cancel</text>
</g>
<!-- place_a994ad4d435724c621cf03d9bbeb61bc270c6a82 -->
<g id="node7" class="node">
<title>place_a994ad4d435724c621cf03d9bbeb61bc270c6a82</title>
<ellipse fill="none" stroke="#333333" cx="586.5645" cy="-127" rx="36" ry="36"/>
<text text-anchor="middle" x="586.5645" y="-124.9746" font-family="Arial" font-size="9.00" fill="#000000">refunded</text>
</g>
<!-- place_231e564db4cdb44a6545583a8d460edc7f9f97ca&#45;&gt;place_a994ad4d435724c621cf03d9bbeb61bc270c6a82 -->
<g id="edge9" class="edge">
<title>place_231e564db4cdb44a6545583a8d460edc7f9f97ca&#45;&gt;place_a994ad4d435724c621cf03d9bbeb61bc270c6a82</title>
<path fill="none" stroke="#333333" d="M489.1776,-127C506.3953,-127 527.083,-127 544.9544,-127"/>
<polygon fill="#333333" stroke="#333333" points="545.4034,-128.7501 550.4034,-127 545.4034,-125.2501 545.4034,-128.7501"/>
<text text-anchor="middle" x="519.8049" y="-130.1491" font-family="Arial" font-size="9.00" fill="#000000">refund</text>
</g>
</g>
</svg>
